PathFileType	4	(x/y/z)	S04_P20_T18.trc
DataRate	CameraRate	NumFrames	NumMarkers	Units	OrigDataRate	OrigDataStartFrame	OrigNumFrames
240	240	9	51	mm	240	1	363
Frame#	Time	Sternum			R.Acromium			L.Acromium			Top.Head			R.ASIS			L.ASIS			R.PSIS			L.PSIS			R.Great.Tro			L.Great.Tro			R.Iliac.Crest			L.Iliac.Crest			V.Sacral			R.Thigh.Upper.Post			R.Thigh.Lower.Ant			R.Thigh.Lower.Post			R.Thigh.Upper.Ant			R.Knee.Lat			R.Knee.Med			R.Shank.Upper.Post			R.Shank.Lower.Ant			R.Shank.Lower.Post			R.Shank.Upper.Ant			R.Ankle.Lat			R.Ankle.Med			R.Heel.Upper			R.Heel.Med			R.Heel.Lat			R.Toe.Lat			R.Toe.Med			R.Toe.Tip			L.Thigh.Upper.Post			L.Thigh.Lower.Ant			L.Thigh.Lower.Post			L.Thigh.Upper.Ant			L.Knee.Lat			L.Knee.Med			L.Shank.Upper.Post			L.Shank.Lower.Ant			L.Shank.Lower.Post			L.Shank.Upper.Ant			L.Ankle.Lat			L.Ankle.Med			L.Heel.Upper			L.Heel.Med			L.Heel.Lat			L.Toe.Lat			L.Toe.Med			L.Toe.Tip			Cervical.Spine			Back			
		X1	Y1	Z1	X2	Y2	Z2	X3	Y3	Z3	X4	Y4	Z4	X5	Y5	Z5	X6	Y6	Z6	X7	Y7	Z7	X8	Y8	Z8	X9	Y9	Z9	X10	Y10	Z10	X11	Y11	Z11	X12	Y12	Z12	X13	Y13	Z13	X14	Y14	Z14	X15	Y15	Z15	X16	Y16	Z16	X17	Y17	Z17	X18	Y18	Z18	X19	Y19	Z19	X20	Y20	Z20	X21	Y21	Z21	X22	Y22	Z22	X23	Y23	Z23	X24	Y24	Z24	X25	Y25	Z25	X26	Y26	Z26	X27	Y27	Z27	X28	Y28	Z28	X29	Y29	Z29	X30	Y30	Z30	X31	Y31	Z31	X32	Y32	Z32	X33	Y33	Z33	X34	Y34	Z34	X35	Y35	Z35	X36	Y36	Z36	X37	Y37	Z37	X38	Y38	Z38	X39	Y39	Z39	X40	Y40	Z40	X41	Y41	Z41	X42	Y42	Z42	X43	Y43	Z43	X44	Y44	Z44	X45	Y45	Z45	X46	Y46	Z46	X47	Y47	Z47	X48	Y48	Z48	X49	Y49	Z49	X50	Y50	Z50	X51	Y51	Z51	

1	0	NaN	NaN	NaN	-1400.2	1504.1	439.94	-1455.4	1496.6	93.868	-1366.6	1830	248.22	NaN	NaN	NaN	NaN	NaN	NaN	-1576.8	1034.8	291.93	-1563.6	1037.3	210.4	-1468.8	917.17	454.94	-1458.9	929	73.911	-1444.2	1087.8	437.59	-1462.2	1096.7	101.14	-1591	993.88	251.04	-1518.8	668.96	434.48	NaN	NaN	NaN	-1536	580.52	419.52	-1414.6	682.39	412.45	-1529.9	506.5	409.9	-1550.7	510.85	273.34	-1649	301.19	391.91	NaN	NaN	NaN	-1668.2	235.36	372.36	NaN	NaN	NaN	-1676.5	120.36	349.77	-1650.5	131.51	264.23	-1742.7	92.658	293.76	-1732.5	59.961	265.21	-1743.4	61.965	328.68	-1575.3	45.142	386.43	-1531.8	42.56	269.94	-1471	54.241	320.38	-1403.2	689.35	89.672	-1294.1	624.7	90.996	-1364.1	609.27	104.41	NaN	NaN	NaN	-1296.1	535.17	107.98	-1283.1	526.34	236.88	-1323.4	339.72	115.78	-1229.7	279.31	108.89	-1292.2	267.95	122.93	-1261.3	349.46	101.77	-1192.8	124.36	128.08	-1184.8	140.48	219.83	-1252.2	69.354	181.42	-1234.8	51.48	215.58	-1239	43.938	154.82	-1067.2	95.316	104.31	-1034.4	122.53	214	-988.09	150.51	162.12	-1475.7	1558.7	278.41	-1573.1	1305.3	267.53
2	0.0041667	-1302.1	1271.4	246.7	-1396	1503.8	439.66	-1450.9	1495.9	93.504	-1362.4	1829.5	247.98	NaN	NaN	NaN	NaN	NaN	NaN	-1572	1034.3	291.62	-1558.6	1036.8	210.07	-1464.1	916.7	454.81	-1453.9	928.46	73.826	-1439.6	1087.3	437.44	-1457.3	1096.1	100.9	-1586.1	993.33	250.73	-1514.5	668.63	434.37	NaN	NaN	NaN	-1531.8	580.21	419.42	-1411.1	681.62	413.02	-1526.4	506.28	409.97	-1546.5	510.54	273.35	-1646.9	301.82	391.94	NaN	NaN	NaN	-1666.3	236.05	372.53	NaN	NaN	NaN	-1676.1	121.24	349.95	-1650.2	132.32	264.43	-1742.3	93.773	293.91	-1732.2	61.147	265.26	-1743.1	63.031	328.74	-1575.4	45.09	386.47	-1531.7	42.538	270.02	-1470.7	53.893	320.43	-1398.8	688.74	89.808	-1289.8	623.85	91.391	-1360	608.58	104.66	NaN	NaN	NaN	-1292	534.32	108.31	-1279.3	525.56	237.23	-1319.2	338.75	116.09	-1225.7	278.37	109.49	-1288.2	266.98	123.27	-1257.1	348.55	102.32	-1188.7	123.46	128.76	-1181.2	139.52	220.55	-1248.2	68.304	181.93	-1231	50.446	216	-1235	42.977	155.26	-1063.1	94.834	105.43	-1030.8	121.95	215.27	-984.37	150.19	163.6	-1471.3	1558.1	278.06	-1568.5	1304.7	267.26
3	0.0083333	-1297.4	1270.9	246.39	-1391.7	1503.4	439.37	-1446.2	1495.2	93.117	-1358	1829	247.74	NaN	NaN	NaN	NaN	NaN	NaN	-1566.9	1033.7	291.28	-1553.4	1036.2	209.72	-1459.2	916.21	454.67	-1448.7	927.89	73.736	-1434.7	1086.7	437.29	-1452.3	1095.4	100.65	-1581	992.76	250.4	-1509.9	668.29	434.26	NaN	NaN	NaN	-1527.4	579.87	419.33	-1407.3	680.85	413.57	-1522.6	506.04	410.04	-1542.1	510.21	273.36	-1644.8	302.5	391.97	NaN	NaN	NaN	-1664.3	236.79	372.71	NaN	NaN	NaN	-1675.6	122.17	350.14	-1649.9	133.19	264.64	-1741.9	94.981	294.06	-1731.9	62.428	265.33	-1742.8	64.188	328.82	-1575.5	45.051	386.52	-1531.6	42.519	270.09	-1470.4	53.53	320.49	-1394.1	688.11	89.948	-1285.2	622.97	91.807	-1355.7	607.86	104.92	NaN	NaN	NaN	-1287.8	533.43	108.65	-1275.5	524.76	237.57	-1315	337.76	116.39	-1221.6	277.37	110.11	-1284.1	265.99	123.62	-1252.8	347.59	102.9	-1184.7	122.5	129.46	-1177.6	138.51	221.3	-1244.2	67.263	182.44	-1227.2	49.399	216.41	-1231	42.017	155.7	-1059	94.242	106.62	-1027.1	121.23	216.6	-980.62	149.7	165.16	-1466.6	1557.6	277.68	-1563.7	1304	266.96
4	0.0125	-1292.5	1270.4	246.06	-1387.1	1503	439.04	-1441.3	1494.5	92.707	-1353.4	1828.6	247.48	NaN	NaN	NaN	NaN	NaN	NaN	-1561.6	1033.1	290.94	-1548.1	1035.6	209.36	-1454.1	915.7	454.52	-1443.3	927.3	73.642	-1429.7	1086.2	437.12	-1447	1094.7	100.38	-1575.8	992.17	250.06	-1505.1	667.92	434.15	NaN	NaN	NaN	-1522.7	579.52	419.24	-1403.3	680.09	414.08	-1518.7	505.78	410.13	-1537.5	509.84	273.39	-1642.5	303.23	392.01	NaN	NaN	NaN	-1662.1	237.58	372.9	NaN	NaN	NaN	-1675.1	123.14	350.34	-1649.5	134.11	264.87	-1741.5	96.288	294.23	-1731.6	63.809	265.4	-1742.4	65.439	328.9	-1575.7	45.029	386.57	-1531.5	42.503	270.17	-1470.1	53.153	320.54	-1389.3	687.47	90.089	-1280.6	622.08	92.243	-1351.2	607.13	105.17	NaN	NaN	NaN	-1283.3	532.52	109.01	-1271.4	523.94	237.91	-1310.7	336.76	116.68	-1217.5	276.31	110.75	-1280	264.98	123.97	-1248.4	346.59	103.49	-1180.7	121.5	130.18	-1174.1	137.42	222.07	-1240.3	66.249	182.94	-1223.5	48.354	216.83	-1227.1	41.073	156.13	-1054.9	93.525	107.86	-1023.6	120.35	218	-976.9	149.02	166.8	-1461.8	1557	277.27	-1558.8	1303.4	266.64
5	0.016667	-1287.5	1269.9	245.72	-1382.5	1502.6	438.69	-1436.3	1493.8	92.275	-1348.8	1828.1	247.21	NaN	NaN	NaN	NaN	NaN	NaN	-1556.1	1032.6	290.59	-1542.6	1035	209	-1448.8	915.19	454.37	-1437.8	926.69	73.543	-1424.5	1085.6	436.95	-1441.6	1094	100.11	-1570.3	991.58	249.72	-1500.1	667.52	434.03	NaN	NaN	NaN	-1517.8	579.14	419.14	-1399	679.34	414.55	-1514.5	505.49	410.22	-1532.6	509.44	273.43	-1640	304	392.06	NaN	NaN	NaN	-1659.9	238.42	373.1	NaN	NaN	NaN	-1674.4	124.16	350.55	-1649	135.1	265.11	-1741	97.7	294.42	-1731.3	65.295	265.48	-1742.1	66.793	328.98	-1575.8	45.028	386.63	-1531.3	42.493	270.24	-1469.8	52.764	320.6	-1384.3	686.82	90.228	-1275.7	621.18	92.696	-1346.5	606.4	105.43	NaN	NaN	NaN	-1278.7	531.6	109.38	-1267.2	523.1	238.24	-1306.3	335.77	116.97	-1213.3	275.21	111.42	-1275.9	263.95	124.31	-1243.9	345.56	104.1	-1176.8	120.44	130.91	-1170.6	136.28	222.86	-1236.5	65.28	183.42	-1219.9	47.325	217.24	-1223.3	40.159	156.54	-1051	92.671	109.15	-1020.1	119.29	219.46	-973.25	148.14	168.51	-1456.9	1556.4	276.84	-1553.7	1302.7	266.29
6	0.020833	-1282.3	1269.4	245.36	-1377.6	1502.2	438.32	-1431.2	1493.2	91.821	-1344	1827.6	246.93	NaN	NaN	NaN	NaN	NaN	NaN	-1550.6	1032	290.23	-1537	1034.4	208.63	-1443.3	914.67	454.21	-1432.1	926.08	73.44	-1419.1	1085.1	436.76	-1436	1093.3	99.818	-1564.8	990.98	249.36	-1494.9	667.1	433.92	NaN	NaN	NaN	-1512.8	578.74	419.06	-1394.5	678.62	414.98	-1510.1	505.18	410.32	-1527.5	509.01	273.49	-1637.5	304.81	392.13	NaN	NaN	NaN	-1657.5	239.33	373.31	NaN	NaN	NaN	-1673.7	125.23	350.77	-1648.4	136.14	265.36	-1740.4	99.226	294.62	-1730.9	66.895	265.56	-1741.7	68.259	329.08	-1576	45.05	386.7	-1531.2	42.489	270.32	-1469.5	52.366	320.65	-1379.1	686.16	90.364	-1270.7	620.29	93.161	-1341.7	605.66	105.69	NaN	NaN	NaN	-1274	530.66	109.75	-1262.9	522.25	238.56	-1301.9	334.8	117.23	-1209.1	274.06	112.1	-1271.8	262.91	124.64	-1239.4	344.5	104.72	-1173	119.35	131.65	-1167.3	135.07	223.65	-1232.9	64.373	183.87	-1216.6	46.327	217.64	-1219.8	39.29	156.94	-1047.2	91.671	110.48	-1016.9	118.04	220.95	-969.72	147.02	170.28	-1451.9	1555.8	276.39	-1548.5	1302	265.92
7	0.025	-1277	1269	245	-1372.7	1501.8	437.91	-1426	1492.5	91.346	-1339.2	1827.1	246.64	NaN	NaN	NaN	NaN	NaN	NaN	-1544.9	1031.4	289.86	-1531.3	1033.8	208.25	-1437.8	914.16	454.04	-1426.3	925.45	73.333	-1413.7	1084.5	436.56	-1430.4	1092.6	99.518	-1559.1	990.39	248.99	-1489.6	666.66	433.81	NaN	NaN	NaN	-1507.5	578.32	418.97	-1389.7	677.94	415.36	-1505.4	504.83	410.44	-1522.1	508.54	273.57	-1634.7	305.68	392.21	NaN	NaN	NaN	-1655	240.29	373.53	NaN	NaN	NaN	-1672.9	126.36	350.99	-1647.8	137.24	265.63	-1739.8	100.87	294.83	-1730.5	68.618	265.65	-1741.3	69.845	329.19	-1576.1	45.098	386.78	-1531.1	42.495	270.39	-1469.2	51.958	320.69	-1373.9	685.5	90.493	-1265.7	619.39	93.637	-1336.8	604.92	105.93	-1313.6	697.23	72.862	-1269.2	529.72	110.12	-1258.5	521.39	238.85	-1297.6	333.86	117.47	-1205	272.87	112.8	-1267.8	261.88	124.95	-1234.9	343.42	105.35	-1169.4	118.22	132.39	-1164.1	133.82	224.45	-1229.4	63.543	184.29	-1213.5	45.375	218.03	-1216.4	38.479	157.32	-1043.5	90.518	111.84	-1013.7	116.58	222.48	-966.33	145.65	172.1	-1446.8	1555.2	275.91	-1543.1	1301.3	265.52
8	0.029167	-1271.6	1268.5	244.62	-1367.8	1501.4	437.49	-1420.7	1491.8	90.85	-1334.4	1826.7	246.35	NaN	NaN	NaN	NaN	NaN	NaN	-1539.1	1030.8	289.49	-1525.5	1033.2	207.86	-1432.2	913.64	453.86	-1420.4	924.83	73.22	-1408.2	1084	436.35	-1424.6	1091.9	99.208	-1553.4	989.8	248.62	-1484	666.19	433.71	NaN	NaN	NaN	-1502.1	577.87	418.9	-1384.6	677.28	415.69	-1500.6	504.45	410.57	-1516.5	508.02	273.67	-1631.8	306.59	392.31	NaN	NaN	NaN	-1652.5	241.32	373.76	NaN	NaN	NaN	-1671.9	127.54	351.24	-1647	138.42	265.91	-1739.1	102.66	295.07	-1730	70.475	265.76	-1740.9	71.562	329.31	-1576.3	45.176	386.86	-1531	42.511	270.46	-1469	51.541	320.73	-1368.5	684.86	90.613	-1260.5	618.51	94.119	-1331.7	604.2	106.17	-1307.9	696.68	73.491	-1264.2	528.78	110.5	-1254	520.53	239.13	-1293.2	332.95	117.68	-1200.9	271.65	113.5	-1263.9	260.86	125.24	-1230.5	342.32	105.98	-1165.9	117.06	133.12	-1161.1	132.52	225.25	-1226.3	62.805	184.68	-1210.7	44.483	218.39	-1213.4	37.738	157.66	-1040.1	89.213	113.23	-1010.8	114.93	224.03	-963.1	144.03	173.95	-1441.6	1554.6	275.4	-1537.7	1300.7	265.09
9	0.033333	-1266.1	1268.1	244.23	-1362.7	1501.1	437.04	-1415.4	1491.2	90.332	-1329.5	1826.3	246.05	NaN	NaN	NaN	NaN	NaN	NaN	-1533.3	1030.2	289.12	-1519.6	1032.7	207.47	-1426.4	913.13	453.67	-1414.5	924.21	73.102	-1402.6	1083.5	436.13	-1418.8	1091.2	98.888	-1547.5	989.22	248.24	-1478.3	665.7	433.61	NaN	NaN	NaN	-1496.4	577.39	418.83	-1379.4	676.66	415.99	-1495.5	504.05	410.72	-1510.7	507.47	273.8	-1628.8	307.55	392.43	NaN	NaN	NaN	-1649.8	242.42	374	NaN	NaN	NaN	-1670.8	128.79	351.49	-1646.1	139.65	266.21	-1738.3	104.58	295.32	-1729.5	72.477	265.87	-1740.4	73.423	329.44	-1576.5	45.284	386.95	-1530.9	42.541	270.53	-1468.7	51.117	320.77	-1363.1	684.22	90.721	-1255.3	617.65	94.603	-1326.6	603.49	106.39	-1302	696.13	74.125	-1259.2	527.85	110.87	-1249.5	519.67	239.37	-1288.9	332.08	117.86	-1196.9	270.41	114.21	-1260	259.86	125.51	-1226	341.22	106.6	-1162.7	115.88	133.84	-1158.2	131.19	226.03	-1223.4	62.168	185.02	-1208.1	43.663	218.72	-1210.6	37.079	157.98	-1036.9	87.756	114.62	-1008.2	113.08	225.58	-960.04	142.16	175.82	-1436.3	1554	274.87	-1532.3	1300	264.63
